#!OML:ASF F:\VICON\USERDATA\INSTALL\rory3\rory3.ASF
:FULLY-SPECIFIED
:DEGREES
46
root -0.1858609615522163 17.022358723027857 18.317659919600075 3.2513559761561766 -3.005591907427187 -5.3699267583434604
lfemur -26.0612179657952 6.98003761991106 -9.770658191135015
ltibia 100.1606432209836
lfoot 3.3291968753471215 -5.52554924971567
ltoes -2.524235715420545
rfemur -18.667033216393534 4.80824799406485 36.19135200347622
rtibia 57.80724450777662
rfoot -17.54674960956237 -16.753980876955627
rtoes 1.0743521933449904
lowerback 17.291253918306403 0.8595265658547677 3.7546965176081466
upperback 0.0010297824206237927 2.2155071221204974 3.8043889891507363
thorax -10.112972307572003 0.9575769712219004 1.3222325702387878
lowerneck -22.017749569946734 -2.953678304400605 -1.4731788929766325
upperneck 12.687809637668229 -3.7418169447748446 1.5116238661985386
head 7.507826050111111 -1.721941861987378 0.1856954715610432
lclavicle -1.1363645333755782e-15 2.2133772718174746e-15
lhumerus -51.42351127521584 -14.515122017298577 100.026342964626
lradius 94.71741613562126
lwrist 32.8558746607461
lhand -24.832855818419443 3.0123304862805016
lfingers 7.12502
lthumb 1.6729973837821734 32.983671732479856
rclavicle -1.1363645333755782e-15 2.2133772718174746e-15
rhumerus -43.66291136932563 10.193933056181166 -95.62255858573548
rradius 107.73392641725731
rwrist -9.813446395434775
rhand -17.442087306487597 39.582383880871504
rfingers 7.12502
rthumb 8.808242493899245 9.520499435056166
47
root -0.19973191097304843 17.07812634211276 19.358539362774607 3.601476793245417 -2.149901757065989 -5.6100280634135675
lfemur -31.49015555046686 6.814037318950674 -9.795014514024276
ltibia 100.4838915026433
lfoot 1.166705816597379 -4.627303988576472
ltoes -3.475780277381479
rfemur -14.447344331790333 4.35867627467087 36.506781956470014
rtibia 56.979544624722365
rfoot -17.76181566729877 -16.999430733299416
rtoes -3.345371911810887
lowerback 17.143301383506454 1.0890358777204059 4.225564818797112
upperback -0.10172357022728828 2.607659977568222 3.721693376090783
thorax -10.08729646477798 1.1128624230985316 0.8142375720711007
lowerneck -22.10530943655866 -3.2540719533674927 -1.4945309468826213
upperneck 12.518495374452296 -4.176071484234982 1.7434214354148807
head 7.481089631609742 -1.908590034811319 0.22598340144984452
lclavicle -1.011222951889122e-15 2.3041450985765733e-15
lhumerus -53.75629545926018 -14.66276767252925 100.55278712131364
lradius 95.975532025077
lwrist 33.237506108030786
lhand -24.27362586035608 2.965078190309603
lfingers 7.12502
lthumb 2.2130511762706795 32.92421601360666
rclavicle -1.011222951889122e-15 2.3041450985765733e-15
rhumerus -41.6287057432245 11.355603648252167 -95.3532502250605
rradius 109.23382300497094
rwrist -10.040524382331304
rhand -17.400035453881287 39.75173379652491
rfingers 7.12502
rthumb 8.848884514156502 9.669846302767144
48
root -0.2010797441095071 17.186583641777364 20.50018225802393 3.8977192361866138 -1.2913231879521945 -5.741330002123654
lfemur -35.98383929724109 6.199278543881022 -10.26088467724468
ltibia 98.97801851624368
lfoot -0.6478711166589832 -3.8621399639208827
ltoes -4.803042524474691
rfemur -10.125369620776153 3.7664319143277045 36.62374183930578
rtibia 55.27331589304925
rfoot -16.641417538986047 -15.93551034387827
rtoes -7.127265618939761
lowerback 16.902936661218774 1.329274776256937 4.714150106705396
upperback -0.2540780731329698 3.0043418066664174 3.559166813451322
thorax -10.0324959340714 1.267514388805405 0.19981971685395672
lowerneck -22.096850893372412 -3.571056307648107 -1.545724165877544
upperneck 12.503295061631102 -4.633228207831325 1.970797927882173
head 7.48749271601745 -2.107437164200823 0.2639185005498414
lclavicle -8.66380243156977e-16 2.4091982405138353e-15
lhumerus -56.05775277480174 -14.826596910637527 100.9684488866535
lradius 97.59592591232206
lwrist 33.74076775044567
lhand -23.637623712792266 2.868186721699201
lfingers 7.12502
lthumb 2.8272367572893646 32.81258636262453
rclavicle -8.66380243156977e-16 2.4091982405138353e-15
rhumerus -40.03639517314858 12.149919520591274 -95.01164018963154
rradius 110.94930839518207
rwrist -10.306697341844702
rhand -17.421056452423155 39.948838710517066
rfingers 7.12502
rthumb 8.828706826437573 9.854728474948054
49
root -0.18940707404804044 17.335816912043704 21.692872053502033 4.113496714477982 -0.4561971730310982 -5.795453423802537
lfemur -39.426509585558556 5.1712248998445025 -11.00878790975915
ltibia 95.49150749629412
lfoot -2.1576088581195214 -3.2657865432641904
ltoes -6.572236301132227
rfemur -5.526060169972924 3.0728242918393756 36.56676944784196
rtibia 52.852287032189714
rfoot -13.937097310670277 -13.75551447533599
rtoes -9.918512332581376
lowerback 16.57244079334051 1.5744770313219052 5.232961900042904
upperback -0.4555796632376181 3.4009282840998547 3.340333921072567
thorax -9.951185370552802 1.4196026360525462 -0.4997278530585677
lowerneck -21.957997712706867 -3.8902627185567877 -1.6138427645746276
upperneck 12.64202689431794 -5.090341244125969 2.1720504666943983
head 7.521864103883696 -2.3101105639949338 0.2940781724887496
lclavicle -7.082486296458345e-16 2.523888808378525e-15
lhumerus -58.36238689984751 -14.709178657249664 101.17797140730505
lradius 99.28718708490372
lwrist 34.19936935694594
lhand -23.08772410743942 2.8138244689023653
lfingers 7.12502
lthumb 3.358269512614476 32.745675727935144
rclavicle -7.082486296458345e-16 2.523888808378525e-15
rhumerus -38.81223374173962 12.665607220504414 -94.6344586329215
rradius 112.62010693396837
rwrist -10.534540292603458
rhand -17.44605091192287 40.1304848467411
rfingers 7.12502
rthumb 8.804732433900798 10.05710095817311
50
root -0.1726999765940213 17.503697244089437 22.45312200302469 4.207436866452797 0.28829199982122866 -5.8039224022562745
lfemur -42.10875907193143 3.7638375818710066 -12.083010355095919
ltibia 89.45654981084922
lfoot -3.5706800782513515 -3.116690219226835
ltoes -8.920436135642356
rfemur -1.2590755316641236 2.2785865710635926 36.19609615518103
rtibia 49.14561077507155
rfoot -9.682717163152876 -10.923419599852167
rtoes -11.540099667555014
lowerback 16.09100345984408 1.777224708032188 5.6521376065357405
upperback -0.7086406735841408 3.7111654914328334 3.044136370350749
thorax -9.843606980784099 1.5360611947281555 -1.2849771468307591
lowerneck -21.666589780578942 -4.21992686838461 -1.6978574307561944
upperneck 12.883609463127483 -5.571106407641283 2.3220550706453187
head 7.5663814062447825 -2.5254348563646993 0.3085968139670264
lclavicle -1.08613512460843e-15 2.2497953039189115e-15
lhumerus -60.962687720521515 -14.305454202678579 101.07293326009393
lradius 100.63418671253864
lwrist 34.48283794944085
lhand -22.824722840413898 2.867760903688056
lfingers 7.12502
lthumb 3.6122408226518967 32.79273955921626
rclavicle -1.08613512460843e-15 2.2497953039189115e-15
rhumerus -38.17910587438152 12.910105831463753 -94.35115430328813
rradius 113.98906987683922
rwrist -10.7096212581617
rhand -17.432543201508537 40.19135482694284
rfingers 7.12502
rthumb 8.81788389410332 10.204422705502525
51
root -0.1449358597601106 17.689951631374004 23.364717645665095 4.214972642480618 1.0608749622562437 -5.711104326788642
lfemur -43.49144495535283 2.181721442657515 -13.244951941463889
ltibia 81.92786073742174
lfoot -4.403201506576899 -3.451329087855711
ltoes -11.264535785786453
rfemur 3.118453109064667 1.6327495010798836 35.67759208883755
rtibia 45.199895710986226
rfoot -3.5135376937417178 -7.670252151588538
rtoes -10.935496501033677
lowerback 15.509201566049526 1.9670701363065308 6.034766283907942
upperback -0.9950884300518748 3.9805473194857517 2.7146782082620273
thorax -9.70204446402931 1.636734352709502 -2.0305066017229274
lowerneck -21.197083948272535 -4.512031432609848 -1.767922667336637
upperneck 13.215457015980201 -6.006630870130838 2.439624431238162
head 7.615390678909715 -2.7217623195948377 0.3183293685257705
lclavicle -1.3351519784056266e-15 2.0691810855114604e-15
lhumerus -63.45318478334749 -13.36253529833463 100.63966784940187
lradius 101.60568348593006
lwrist 34.60121716653228
lhand -22.89797553819236 3.1079914714712102
lfingers 7.12502
lthumb 3.541489245875031 33.03452413910036
rclavicle -1.3351519784056266e-15 2.0691810855114604e-15
rhumerus -37.91987463536518 13.048527135282264 -94.06080199348133
rradius 115.0307558576948
rwrist -10.757294283096085
rhand -17.26713443771073 40.12982763407907
rfingers 7.12502
rthumb 8.977506792579646 10.32463118284229
52
root -0.10780941364031214 17.890985789390673 24.442575619542154 4.18419372810871 1.8188222116135717 -5.524838520683469
lfemur -43.83052255832311 0.6761998623707699 -14.409686262195748
ltibia 73.3289168541791
lfoot -4.608149298200446 -4.3621831086817195
ltoes -13.302447685430037
rfemur 7.302796734902195 1.3503494845559514 35.079869725347606
rtibia 41.42056520170311
rfoot 4.057268890438119 -4.525778787406818
rtoes -7.8446975394391565
lowerback 14.826672859904429 2.148433465063479 6.330400121605304
upperback -1.301913996911258 4.208285054630109 2.35702596645518
thorax -9.521000985723536 1.7241025898325444 -2.7068388411055135
lowerneck -20.58877688007463 -4.770335728523301 -1.8289259891754157
upperneck 13.615432869780532 -6.40321308411372 2.543402277345719
head 7.669171424405186 -2.900379406041456 0.3295900596003155
lclavicle -1.523586290085364e-15 1.93251473115747e-15
lhumerus -65.9118620375552 -11.952915917397874 99.91970021410647
lradius 102.23538015167506
lwrist 34.57546081177107
lhand -23.33332588586326 3.5174648124347705
lfingers 7.12502
lthumb 3.12105242333849 33.454106702926204
rclavicle -1.523586290085364e-15 1.93251473115747e-15
rhumerus -37.97493633707372 13.172848953674931 -93.84376724117607
rradius 115.70333383745596
rwrist -10.756246230797382
rhand -16.919803085786693 39.954702907009136
rfingers 7.12502
rthumb 9.31252386727758 10.443280666209473
